<svg width="151" height="27" viewBox="0 0 151 27" fill="none" xmlns="http://www.w3.org/2000/svg">
<path d="M13.0399 26.492C8.99961 26.492 5.91556 25.3684 3.78781 23.1211C1.68396 20.8738 0.632039 17.6822 0.632039 13.5462C0.632039 11.4902 0.954788 9.66128 1.60029 8.05949C2.24578 6.43379 3.13036 5.07107 4.254 3.97134C5.37765 2.84769 6.71646 1.99898 8.27043 1.4252C9.82441 0.851427 11.5099 0.564539 13.3268 0.564539C14.3788 0.564539 15.335 0.648215 16.1957 0.815567C17.0564 0.959011 17.8095 1.13832 18.455 1.35348C19.1005 1.54474 19.6384 1.74795 20.0687 1.96312C20.499 2.17829 20.8098 2.34564 21.0011 2.46517L19.3873 6.98366C18.6223 6.57723 17.7258 6.23058 16.6978 5.94369C15.6937 5.6568 14.5461 5.51336 13.2551 5.51336C12.3944 5.51336 11.5457 5.6568 10.709 5.94369C9.89613 6.23058 9.16696 6.69677 8.52146 7.34227C7.89987 7.96386 7.39782 8.77671 7.0153 9.78082C6.63278 10.7849 6.44152 12.0042 6.44152 13.4386C6.44152 14.5862 6.56106 15.662 6.80013 16.6661C7.06311 17.6463 7.46954 18.495 8.01941 19.2123C8.59318 19.9295 9.33431 20.5033 10.2428 20.9336C11.1513 21.34 12.251 21.5432 13.542 21.5432C14.3548 21.5432 15.084 21.4954 15.7295 21.3998C16.375 21.3042 16.9488 21.1966 17.4509 21.077C17.9529 20.9336 18.3952 20.7782 18.7777 20.6108C19.1602 20.4435 19.5069 20.2881 19.8177 20.1446L21.3597 24.6273C20.5708 25.1054 19.4591 25.5358 18.0246 25.9183C16.5902 26.3008 14.9286 26.492 13.0399 26.492ZM24.1725 13.5462C24.1725 11.4185 24.4833 9.54174 25.1049 7.91605C25.7504 6.29035 26.6111 4.93958 27.6869 3.86375C28.7867 2.76401 30.0537 1.93921 31.4882 1.38934C32.9465 0.839474 34.4886 0.564539 36.1143 0.564539C37.716 0.564539 39.2222 0.839474 40.6327 1.38934C42.0672 1.93921 43.3223 2.76401 44.3981 3.86375C45.474 4.93958 46.3227 6.29035 46.9443 7.91605C47.5898 9.54174 47.9125 11.4185 47.9125 13.5462C47.9125 15.674 47.5898 17.5507 46.9443 19.1764C46.3227 20.8021 45.474 22.1648 44.3981 23.2646C43.3223 24.3404 42.0672 25.1532 40.6327 25.7031C39.2222 26.253 37.716 26.5279 36.1143 26.5279C34.4886 26.5279 32.9465 26.253 31.4882 25.7031C30.0537 25.1532 28.7867 24.3404 27.6869 23.2646C26.6111 22.1648 25.7504 20.8021 25.1049 19.1764C24.4833 17.5507 24.1725 15.674 24.1725 13.5462ZM27.8304 13.5462C27.8304 15.0524 28.0216 16.4271 28.4041 17.6702C28.7867 18.8895 29.3246 19.9295 30.0179 20.7901C30.7351 21.6508 31.5958 22.3202 32.5999 22.7984C33.6279 23.2526 34.7754 23.4797 36.0425 23.4797C37.3096 23.4797 38.4452 23.2526 39.4493 22.7984C40.4534 22.3202 41.3021 21.6508 41.9955 20.7901C42.7127 19.9295 43.2626 18.8895 43.6451 17.6702C44.0276 16.4271 44.2188 15.0524 44.2188 13.5462C44.2188 12.0401 44.0276 10.6773 43.6451 9.45807C43.2626 8.21489 42.7127 7.16296 41.9955 6.3023C41.3021 5.44164 40.4534 4.78418 39.4493 4.32995C38.4452 3.8518 37.3096 3.61273 36.0425 3.61273C34.7754 3.61273 33.6279 3.8518 32.5999 4.32995C31.5958 4.78418 30.7351 5.44164 30.0179 6.3023C29.3246 7.16296 28.7867 8.21489 28.4041 9.45807C28.0216 10.6773 27.8304 12.0401 27.8304 13.5462ZM59.6506 21.7225C60.4395 21.7225 61.085 21.6628 61.5871 21.5432C62.113 21.3998 62.5314 21.2205 62.8422 21.0053C63.153 20.7662 63.3682 20.4913 63.4877 20.1805C63.6072 19.8697 63.667 19.5231 63.667 19.1405C63.667 18.3277 63.2845 17.6583 62.5194 17.1323C61.7544 16.5825 60.4395 15.9967 58.5747 15.3751C57.7619 15.0882 56.949 14.7655 56.1362 14.4069C55.3233 14.0244 54.5942 13.5582 53.9487 13.0083C53.3032 12.4345 52.7772 11.7532 52.3708 10.9642C51.9644 10.1514 51.7611 9.17118 51.7611 8.02363C51.7611 6.87608 51.9763 5.84806 52.4066 4.93958C52.837 4.0072 53.4466 3.21825 54.2356 2.57276C55.0245 1.92726 55.9808 1.43716 57.1044 1.10246C58.2281 0.743845 59.4952 0.564539 60.9057 0.564539C62.5792 0.564539 64.0256 0.743845 65.2449 1.10246C66.4642 1.46107 67.4683 1.85554 68.2572 2.28587L66.6435 6.69677C65.9501 6.33816 65.1732 6.02737 64.3125 5.76439C63.4757 5.4775 62.4597 5.33405 61.2643 5.33405C59.9255 5.33405 58.9572 5.52531 58.3596 5.90783C57.7858 6.26644 57.4989 6.82826 57.4989 7.5933C57.4989 8.04754 57.6065 8.43005 57.8217 8.74085C58.0368 9.05164 58.3357 9.33853 58.7182 9.60151C59.1246 9.84059 59.5788 10.0677 60.0809 10.2829C60.6069 10.4741 61.1806 10.6773 61.8022 10.8925C63.0932 11.3707 64.2169 11.8488 65.1732 12.3269C66.1294 12.7812 66.9184 13.3191 67.54 13.9407C68.1855 14.5623 68.6636 15.2915 68.9744 16.1282C69.2852 16.965 69.4406 17.981 69.4406 19.1764C69.4406 21.4954 68.6278 23.3004 67.0021 24.5914C65.3764 25.8585 62.9259 26.492 59.6506 26.492C58.5508 26.492 57.5587 26.4203 56.6741 26.2769C55.7895 26.1573 55.0006 26.0019 54.3073 25.8107C53.6379 25.6194 53.0521 25.4162 52.5501 25.201C52.0719 24.9859 51.6655 24.7827 51.3308 24.5914L52.9087 20.1446C53.6498 20.5511 54.5583 20.9216 55.6341 21.2563C56.7339 21.5671 58.0727 21.7225 59.6506 21.7225ZM80.3435 1.13832C80.7738 1.92726 81.2639 2.90746 81.8138 4.07892C82.3876 5.22647 82.9733 6.48161 83.571 7.84432C84.1926 9.18313 84.8022 10.5578 85.3999 11.9683C85.9976 13.3789 86.5594 14.7057 87.0853 15.9489C87.6113 14.7057 88.1731 13.3789 88.7708 11.9683C89.3685 10.5578 89.9662 9.18313 90.5639 7.84432C91.1855 6.48161 91.7712 5.22647 92.3211 4.07892C92.8948 2.90746 93.3969 1.92726 93.8272 1.13832H98.9195C99.1586 2.78792 99.3737 4.64074 99.565 6.69677C99.7801 8.72889 99.9594 10.8566 100.103 13.08C100.27 15.2795 100.414 17.4909 100.533 19.7143C100.677 21.9377 100.796 24.0296 100.892 25.99H95.441C95.3692 23.5753 95.2736 20.9455 95.1541 18.1006C95.0345 15.2556 94.8552 12.3867 94.6162 9.49393C94.1858 10.498 93.7077 11.6097 93.1817 12.829C92.6558 14.0483 92.1298 15.2676 91.6038 16.4868C91.1018 17.7061 90.6117 18.8776 90.1335 20.0012C89.6554 21.1009 89.249 22.0453 88.9143 22.8342H85.0054C84.6707 22.0453 84.2643 21.1009 83.7861 20.0012C83.308 18.8776 82.8059 17.7061 82.28 16.4868C81.7779 15.2676 81.2639 14.0483 80.738 12.829C80.212 11.6097 79.7338 10.498 79.3035 9.49393C79.0644 12.3867 78.8851 15.2556 78.7656 18.1006C78.6461 20.9455 78.5504 23.5753 78.4787 25.99H73.0278C73.1235 24.0296 73.231 21.9377 73.3506 19.7143C73.494 17.4909 73.6375 15.2795 73.7809 13.08C73.9483 10.8566 74.1276 8.72889 74.3188 6.69677C74.534 4.64074 74.7611 2.78792 75.0002 1.13832H80.3435ZM105.14 13.5462C105.14 11.4185 105.451 9.54174 106.072 7.91605C106.718 6.29035 107.579 4.93958 108.654 3.86375C109.754 2.76401 111.021 1.93921 112.456 1.38934C113.914 0.839474 115.456 0.564539 117.082 0.564539C118.683 0.564539 120.19 0.839474 121.6 1.38934C123.035 1.93921 124.29 2.76401 125.366 3.86375C126.441 4.93958 127.29 6.29035 127.912 7.91605C128.557 9.54174 128.88 11.4185 128.88 13.5462C128.88 15.674 128.557 17.5507 127.912 19.1764C127.29 20.8021 126.441 22.1648 125.366 23.2646C124.29 24.3404 123.035 25.1532 121.6 25.7031C120.19 26.253 118.683 26.5279 117.082 26.5279C115.456 26.5279 113.914 26.253 112.456 25.7031C111.021 25.1532 109.754 24.3404 108.654 23.2646C107.579 22.1648 106.718 20.8021 106.072 19.1764C105.451 17.5507 105.14 15.674 105.14 13.5462ZM108.798 13.5462C108.798 15.0524 108.989 16.4271 109.372 17.6702C109.754 18.8895 110.292 19.9295 110.985 20.7901C111.703 21.6508 112.563 22.3202 113.567 22.7984C114.595 23.2526 115.743 23.4797 117.01 23.4797C118.277 23.4797 119.413 23.2526 120.417 22.7984C121.421 22.3202 122.27 21.6508 122.963 20.7901C123.68 19.9295 124.23 18.8895 124.612 17.6702C124.995 16.4271 125.186 15.0524 125.186 13.5462C125.186 12.0401 124.995 10.6773 124.612 9.45807C124.23 8.21489 123.68 7.16296 122.963 6.3023C122.27 5.44164 121.421 4.78418 120.417 4.32995C119.413 3.8518 118.277 3.61273 117.01 3.61273C115.743 3.61273 114.595 3.8518 113.567 4.32995C112.563 4.78418 111.703 5.44164 110.985 6.3023C110.292 7.16296 109.754 8.21489 109.372 9.45807C108.989 10.6773 108.798 12.0401 108.798 13.5462ZM140.618 21.7225C141.407 21.7225 142.052 21.6628 142.554 21.5432C143.08 21.3998 143.499 21.2205 143.81 21.0053C144.12 20.7662 144.336 20.4913 144.455 20.1805C144.575 19.8697 144.634 19.5231 144.634 19.1405C144.634 18.3277 144.252 17.6583 143.487 17.1323C142.722 16.5825 141.407 15.9967 139.542 15.3751C138.729 15.0882 137.916 14.7655 137.104 14.4069C136.291 14.0244 135.562 13.5582 134.916 13.0083C134.271 12.4345 133.745 11.7532 133.338 10.9642C132.932 10.1514 132.729 9.17118 132.729 8.02363C132.729 6.87608 132.944 5.84806 133.374 4.93958C133.804 4.0072 134.414 3.21825 135.203 2.57276C135.992 1.92726 136.948 1.43716 138.072 1.10246C139.195 0.743845 140.463 0.564539 141.873 0.564539C143.547 0.564539 144.993 0.743845 146.212 1.10246C147.432 1.46107 148.436 1.85554 149.225 2.28587L147.611 6.69677C146.918 6.33816 146.141 6.02737 145.28 5.76439C144.443 5.4775 143.427 5.33405 142.232 5.33405C140.893 5.33405 139.925 5.52531 139.327 5.90783C138.753 6.26644 138.466 6.82826 138.466 7.5933C138.466 8.04754 138.574 8.43005 138.789 8.74085C139.004 9.05164 139.303 9.33853 139.686 9.60151C140.092 9.84059 140.546 10.0677 141.048 10.2829C141.574 10.4741 142.148 10.6773 142.77 10.8925C144.061 11.3707 145.184 11.8488 146.141 12.3269C147.097 12.7812 147.886 13.3191 148.507 13.9407C149.153 14.5623 149.631 15.2915 149.942 16.1282C150.253 16.965 150.408 17.981 150.408 19.1764C150.408 21.4954 149.595 23.3004 147.969 24.5914C146.344 25.8585 143.893 26.492 140.618 26.492C139.518 26.492 138.526 26.4203 137.642 26.2769C136.757 26.1573 135.968 26.0019 135.275 25.8107C134.605 25.6194 134.02 25.4162 133.517 25.201C133.039 24.9859 132.633 24.7827 132.298 24.5914L133.876 20.1446C134.617 20.5511 135.526 20.9216 136.602 21.2563C137.701 21.5671 139.04 21.7225 140.618 21.7225Z" fill="#A9B5CC"/>
</svg>
